<svg width="512" height="512" viewBox="0 0 512 512" fill="none" xmlns="http://www.w3.org/2000/svg">
<g clip-path="url(#clip0_1538_308)">
<path d="M365.547 209.615C374.635 200.527 374.635 185.791 365.547 176.703C356.459 167.614 341.723 167.614 332.635 176.703L223.733 285.605L179.673 239.853C170.758 230.596 156.025 230.316 146.767 239.232C137.508 248.148 137.23 262.879 146.146 272.14L206.655 334.976C210.988 339.477 216.951 342.046 223.2 342.104C229.446 342.162 235.457 339.707 239.874 335.288L365.547 209.615Z" fill="black"/>
<path fill-rule="evenodd" clip-rule="evenodd" d="M256.001 0.000671387C114.617 0.000671387 0.00195312 114.616 0.00195312 256C0.00195312 397.384 114.617 511.999 256.001 511.999C397.385 511.999 512.001 397.384 512.001 256C512.001 114.616 397.385 0.000671387 256.001 0.000671387ZM46.5473 256C46.5473 140.322 140.323 46.546 256.001 46.546C371.68 46.546 465.455 140.322 465.455 256C465.455 371.679 371.68 465.454 256.001 465.454C140.323 465.454 46.5473 371.679 46.5473 256Z" fill="black"/>
</g>
<defs>
<clipPath id="clip0_1538_308">
<rect width="512" height="512" fill="white"/>
</clipPath>
</defs>
</svg>
