<svg width="64" height="64" viewBox="0 0 64 64" fill="none" xmlns="http://www.w3.org/2000/svg">
<path fill-rule="evenodd" clip-rule="evenodd" d="M2.52148 7.36209L55.0868 60.2523C56.0781 61.2492 57.6873 61.2492 58.6786 60.2523C59.6699 59.2548 59.6699 57.6352 58.6786 56.6383L6.11328 3.74809C5.12195 2.75064 3.51281 2.75064 2.52148 3.74809C1.53064 4.74506 1.53064 6.36464 2.52148 7.36209ZM35.4865 47.1627H23.0663C13.1389 47.1627 5.07953 39.053 5.07953 29.0642C5.07953 25.6936 5.99723 22.5378 7.59418 19.833C8.31 18.6206 7.91259 17.0516 6.70769 16.3309C5.50229 15.6106 3.94289 16.0105 3.22706 17.2228C1.17858 20.6921 0 24.7403 0 29.0642C0 41.8737 10.3356 52.2736 23.0663 52.2736H35.4865C36.8884 52.2736 38.026 51.1285 38.026 49.7179C38.026 48.3078 36.8884 47.1627 35.4865 47.1627ZM19.516 11.319C20.6633 11.088 21.8517 10.9663 23.0663 10.9663C32.3204 10.9663 39.9516 18.0118 40.9449 27.0595C41.038 27.9078 41.5461 28.6536 42.299 29.0471C43.0519 29.4401 43.9506 29.4293 44.6937 29.0176C46.0654 28.2581 47.6394 27.8278 49.3124 27.8278C54.6158 27.8278 58.9205 32.1591 58.9205 37.4953C58.9205 40.5534 57.5054 43.2828 55.2984 45.0549C54.2028 45.9351 54.0233 47.5444 54.8981 48.6464C55.7724 49.7488 57.3718 49.9294 58.467 49.0492C61.8394 46.3409 64 42.1685 64 37.4953C64 29.3385 57.4191 22.7169 49.3124 22.7169C47.9583 22.7169 46.6466 22.9019 45.4007 23.2478C42.8305 13.2497 33.8008 5.85536 23.0663 5.85536C21.5099 5.85536 19.988 6.01187 18.5183 6.30772C17.1437 6.58493 16.2519 7.9327 16.5269 9.3153C16.8024 10.6984 18.1414 11.5962 19.516 11.319Z" fill="black"/>
</svg>
