<svg version="1.1" id="Capa_1" xmlns="http://www.w3.org/2000/svg" xmlns:xlink="http://www.w3.org/1999/xlink" x="0px" y="0px" viewBox="0 0 512 512" style="enable-background:new 0 0 512 512;" xml:space="preserve">
<g>
	<g>
		
			<circle style="fill:none;stroke:#33CCCC;stroke-width:22;stroke-linejoin:round;stroke-miterlimit:10;" cx="256" cy="256" r="245"/>
		<path style="fill:none;stroke:#33CCCC;stroke-width:22;stroke-linejoin:round;stroke-miterlimit:10;" d="M175.166,144.054&#10;&#9;&#9;&#9;l-44.889-44.889C164.703,71.532,208.421,55,256,55c111.009,0,201,89.991,201,201c0,47.579-16.532,91.297-44.164,125.723&#10;&#9;&#9;&#9;l-70.925-70.925"/>
		<path style="fill:none;stroke:#33CCCC;stroke-width:22;stroke-linejoin:round;stroke-miterlimit:10;" d="M315.331,346.444&#10;&#9;&#9;&#9;l66.391,66.391C347.297,440.468,303.579,457,256,457c-111.009,0-201-89.991-201-201c0-47.579,16.532-91.297,44.164-125.723&#10;&#9;&#9;&#9;l68.007,68.007"/>
	</g>
	<g>
		<path style="fill:none;stroke:#000000;stroke-width:22;stroke-linecap:round;stroke-linejoin:round;stroke-miterlimit:10;" d="&#10;&#9;&#9;&#9;M205.939,251.24l27.194,15.173c16.407,9.154,26.575,26.471,26.575,45.259v0"/>
		<path style="fill:none;stroke:#000000;stroke-width:22;stroke-linecap:round;stroke-linejoin:round;stroke-miterlimit:10;" d="&#10;&#9;&#9;&#9;M304.207,189.66c0-12.288,9.961-22.249,22.249-22.249c12.288,0,22.249,9.961,22.249,22.249l0,39.331&#10;&#9;&#9;&#9;c0,12.288-9.961,22.249-22.249,22.249s-22.249-9.961-22.249-22.249L304.207,189.66z"/>
		<path style="fill:none;stroke:#000000;stroke-width:22;stroke-linecap:round;stroke-linejoin:round;stroke-miterlimit:10;" d="&#10;&#9;&#9;&#9;M259.708,182.243c0-12.288,9.961-22.249,22.249-22.249c12.288,0,22.249,9.961,22.249,22.249l0,46.748&#10;&#9;&#9;&#9;c0,12.288-9.961,22.249-22.249,22.249c-12.288,0-22.249-9.961-22.249-22.249v-13.97"/>
		<path style="fill:none;stroke:#000000;stroke-width:22;stroke-linecap:round;stroke-linejoin:round;stroke-miterlimit:10;" d="&#10;&#9;&#9;&#9;M215.21,174.827c0-12.288,9.961-22.249,22.249-22.249c12.288,0,22.249,9.961,22.249,22.249v23.757"/>
		<path style="fill:none;stroke:#000000;stroke-width:22;stroke-linejoin:round;stroke-miterlimit:10;" d="M170.711,204.252&#10;&#9;&#9;&#9;l0-36.842c0-12.288,9.961-22.249,22.249-22.249c12.288,0,22.249,9.961,22.249,22.249v31.173"/>
		<path style="fill:none;stroke:#000000;stroke-width:22;stroke-linejoin:round;stroke-miterlimit:10;" d="M348.705,222.069v52.065&#10;&#9;&#9;&#9;c0,51.2-41.506,92.705-92.705,92.705h0c-51.2,0-92.705-41.506-92.705-92.705l0-53.301c0-12.288,9.961-22.249,22.249-22.249&#10;&#9;&#9;&#9;l74.164,0v16.438c0,20.003-16.216,36.219-36.219,36.219l-17.55,0"/>
	</g>
</g>
<g>
</g>
<g>
</g>
<g>
</g>
<g>
</g>
<g>
</g>
<g>
</g>
<g>
</g>
<g>
</g>
<g>
</g>
<g>
</g>
<g>
</g>
<g>
</g>
<g>
</g>
<g>
</g>
<g>
</g>
</svg>