<svg id="Layer_1" enable-background="new 0 0 512 512" height="512" viewBox="0 0 512 512" width="512" xmlns="http://www.w3.org/2000/svg"><path d="m321.517 165.294v-62.376c0-3.59-2.393-6.741-5.851-7.706-3.457-.965-7.136.493-8.994 3.565l-28.708 47.456c-6.232-1.242-12.583-1.957-18.971-2.127v-27.329c8.94-6.244 14.496-16.633 14.496-27.702 0-6.886-2.079-13.294-5.636-18.637 6.071-2.174 13.351-3.701 21.809-5.28 23.477-4.382 52.695-9.836 52.695-49.158 0-4.418-3.582-8-8-8s-8 3.582-8 8c0 24.823-14.32 28.706-39.632 33.43-10.406 1.942-22.075 4.124-32.13 9.365-4.479-2.203-9.514-3.446-14.834-3.446-18.597 0-33.727 15.13-33.727 33.727 0 11.071 5.557 21.461 14.501 27.705l.032 33.042c-44.291 14.849-76.293 56.737-76.293 105.963 0 28.944 8.771 43.933 18.056 59.803 9.917 16.949 21.155 36.159 23.735 79.553v16.58c0 10.907 7.064 20.189 16.855 23.527v10.184c0 11.066 7.271 20.463 17.286 23.673v10.04c0 13.705 11.149 24.854 24.854 24.854h21.876c13.705 0 24.854-11.149 24.854-24.854v-10.04c10.015-3.209 17.286-12.607 17.286-23.673v-10.184c9.791-3.338 16.855-12.62 16.855-23.527v-16.594c2.583-43.383 13.819-62.592 23.734-79.539 9.286-15.869 18.057-30.858 18.057-59.803.003-35.967-17.195-69.471-46.205-90.492zm-16-33.695v41.498c0 16.265-11.32 29.927-26.493 33.546v-6.685c11.57-3.452 20.031-14.184 20.031-26.861v-7.016c0-4.418-3.582-8-8-8h-1.558zm-68.985-19.38c-.003-3.06-1.751-5.85-4.503-7.188-6.164-2.996-9.993-9.109-9.993-15.956 0-9.665 7.778-17.535 17.402-17.71-3.174 4.238-5.723 9.371-7.403 15.641-1.144 4.268 1.389 8.654 5.657 9.798.693.186 1.39.274 2.075.274 3.532 0 6.765-2.357 7.723-5.931 1.397-5.212 3.623-9.225 6.643-12.412 2.103 2.914 3.357 6.479 3.357 10.34 0 6.847-3.829 12.96-9.993 15.956-2.754 1.339-4.503 4.133-4.503 7.195v32.594c-2.162.252-4.307.56-6.43.934zm30.406 375.781h-21.876c-4.883 0-8.854-3.972-8.854-8.854v-8.857h39.585v8.857c-.001 4.882-3.972 8.854-8.855 8.854zm17.287-33.712h-56.447c-4.884 0-8.856-3.973-8.856-8.855v-8.855h74.157v8.855c0 4.882-3.972 8.855-8.854 8.855zm16.855-33.711h-90.16c-4.883 0-8.854-3.973-8.854-8.855v-8.857h107.868v8.857c0 4.882-3.972 8.855-8.854 8.855zm-70.992-147.925h-16.104c-8.88 0-16.104-7.224-16.104-16.104s7.225-16.104 16.104-16.104 16.104 7.224 16.104 16.104zm35.825 114.212h-19.824v-98.212h19.824zm69.946-79.356c-10.248 17.515-21.789 37.237-25.371 79.356h-28.575v-98.212h16.104c17.702 0 32.104-14.401 32.104-32.104s-14.401-32.104-32.104-32.104-32.104 14.402-32.104 32.104v16.104h-19.824v-16.104c0-17.702-14.401-32.104-32.104-32.104s-32.104 14.402-32.104 32.104 14.402 32.104 32.104 32.104h16.104v98.212h-28.577c-3.582-42.119-15.122-61.842-25.371-79.356-8.864-15.149-15.865-27.115-15.865-51.722 0-52.783 42.942-95.725 95.726-95.725 4.38 0 8.744.307 13.059.895l-.596.985c-1.495 2.47-1.542 5.555-.124 8.07s4.081 4.071 6.969 4.071h7.705c-.299 3.507-2.187 6.635-4.914 8.662-1.34-2.54-4.004-4.273-7.076-4.273-4.418 0-8 3.582-8 8v35.778c0 4.418 3.582 8 8 8 4.179 0 7.605-3.206 7.964-7.292 20.231-3.22 36.485-18.499 41.158-38.214 19.977 18.027 31.579 43.705 31.579 71.044-.001 24.606-7.003 36.571-15.867 51.721zm-53.946-34.856v-16.104c0-8.88 7.224-16.104 16.104-16.104s16.104 7.224 16.104 16.104c0 8.879-7.224 16.104-16.104 16.104zm-123.289-151.852c-2.21-3.826-.898-8.719 2.928-10.928 3.828-2.209 8.72-.897 10.928 2.928l12.217 21.159c2.21 3.826.898 8.719-2.928 10.928-1.26.727-2.636 1.073-3.992 1.073-2.766 0-5.454-1.435-6.936-4.001zm-31.199 78.429c-1.481 2.566-4.171 4.001-6.936 4.001-1.357 0-2.732-.346-3.992-1.073l-21.159-12.216c-3.826-2.209-5.138-7.102-2.928-10.928 2.209-3.827 7.102-5.138 10.928-2.928l21.159 12.216c3.827 2.209 5.138 7.102 2.928 10.928zm223.024-89.357c3.826 2.209 5.138 7.102 2.928 10.928l-12.216 21.159c-1.481 2.566-4.171 4.001-6.936 4.001-1.357 0-2.732-.346-3.992-1.073-3.826-2.209-5.138-7.102-2.928-10.928l12.216-21.159c2.209-3.827 7.101-5.139 10.928-2.928zm66.213 80.07-21.159 12.216c-1.26.727-2.636 1.073-3.992 1.073-2.766 0-5.454-1.435-6.936-4.001-2.21-3.826-.898-8.719 2.928-10.928l21.159-12.216c3.828-2.21 8.72-.897 10.928 2.928 2.209 3.826.898 8.719-2.928 10.928z"/></svg>