<svg width="24" height="24" viewBox="0 0 24 24" fill="none" xmlns="http://www.w3.org/2000/svg">
<path d="M4.77143 8.30812C4.77143 7.79855 5.19383 7.38499 5.71429 7.38499H14.5143C15.0347 7.38499 15.4571 7.79855 15.4571 8.30812C15.4571 8.81768 15.0347 9.23124 14.5143 9.23124H5.71429C5.19383 9.23124 4.77143 8.81768 4.77143 8.30812ZM9.48571 11.0775H5.71429C5.19383 11.0775 4.77143 11.4911 4.77143 12.0006C4.77143 12.5102 5.19383 12.9237 5.71429 12.9237H9.48571C10.0062 12.9237 10.4286 12.5102 10.4286 12.0006C10.4286 11.4911 10.0062 11.0775 9.48571 11.0775ZM5.71429 5.53875H14.5143C15.0347 5.53875 15.4571 5.12519 15.4571 4.61562C15.4571 4.10606 15.0347 3.6925 14.5143 3.6925H5.71429C5.19383 3.6925 4.77143 4.10606 4.77143 4.61562C4.77143 5.12519 5.19383 5.53875 5.71429 5.53875ZM18.2103 15.0629L16.6514 16.7738L15.8456 15.89C15.4974 15.5109 14.9027 15.4753 14.513 15.8162C14.1246 16.1559 14.0919 16.7393 14.4376 17.1209L15.9462 18.7751C16.1259 18.9708 16.3811 19.0828 16.6502 19.0828C16.9192 19.0828 17.1744 18.9708 17.3542 18.7751L19.617 16.2938C19.9627 15.9122 19.9301 15.33 19.5416 14.9891C19.1519 14.6494 18.5573 14.6851 18.209 15.0629H18.2103ZM23 13.2499V16.471C23 19.7426 20.9131 22.7113 17.8055 23.8597C17.5553 23.9532 17.2913 24 17.0286 24C16.7658 24 16.5018 23.9532 16.2529 23.8609C15.5275 23.5926 14.8638 23.2172 14.2629 22.7692H4.45714C2.55006 22.7692 1 21.2516 1 19.3844V3.38479C1 1.51762 2.55006 0 4.45714 0H15.7714C17.6785 0 19.2286 1.51762 19.2286 3.38479V11.0775H19.5429C19.6912 11.0775 19.837 11.112 19.9703 11.1772L22.4846 12.4277C22.8014 12.5853 23 12.9028 23 13.2499ZM4.45714 20.9229H12.4664C11.5726 19.6355 11.0571 18.0908 11.0571 16.471V13.2499C11.0571 12.9028 11.2558 12.584 11.5726 12.4265L14.0869 11.176C14.2189 11.1107 14.3659 11.0763 14.5143 11.0763H17.3429V3.38356C17.3429 2.53551 16.6376 1.84502 15.7714 1.84502H4.45714C3.59097 1.84502 2.88571 2.53551 2.88571 3.38356V19.3844C2.88571 20.2324 3.59097 20.9229 4.45714 20.9229ZM21.1143 13.8161L19.3166 12.9225H14.7393L12.9416 13.8161V16.471C12.9416 18.9782 14.5394 21.254 16.9154 22.1341C16.9921 22.1599 17.0663 22.1599 17.1354 22.1341C19.5165 21.2528 21.113 18.9782 21.113 16.4698V13.8149L21.1143 13.8161Z" fill="black"/>
</svg>
