<svg width="32" height="32" viewBox="0 0 32 32" fill="none" xmlns="http://www.w3.org/2000/svg">
<path d="M16.757 19.7981C16.3555 19.4006 15.6445 19.4006 15.243 19.7981L12.3136 22.6989C11.8955 23.1128 11.8955 23.7838 12.3136 24.1977C12.7317 24.6117 13.41 24.6117 13.8275 24.1977L14.9293 23.107V26.94C14.9293 27.5251 15.409 28 16 28C16.591 28 17.0707 27.5251 17.0707 26.94V23.107L18.1724 24.1977C18.3812 24.405 18.6553 24.5083 18.9294 24.5083C19.2035 24.5083 19.4771 24.405 19.6864 24.1977C20.1045 23.7838 20.1045 23.1128 19.6864 22.6989L16.757 19.7981Z" fill="black"/>
<path d="M24.6074 0.5H7.3926C5.52181 0.5 4 2.00505 4 3.85523V28.1448C4 29.9949 5.52181 31.5 7.3926 31.5H24.6074C26.4782 31.5 28 29.9949 28 28.1448V3.85523C28 2.00505 26.4782 0.5 24.6074 0.5ZM25.9103 28.1448C25.9103 28.8552 25.3257 29.4333 24.6074 29.4333H7.3926C6.67427 29.4333 6.08968 28.8552 6.08968 28.1448V3.85523C6.08968 3.14482 6.67427 2.56667 7.3926 2.56667H24.6074C25.3257 2.56667 25.9103 3.14482 25.9103 3.85523V28.1448Z" fill="black"/>
<path d="M21.4876 15H10.5124C9.95355 15 9.5 15.448 9.5 16C9.5 16.552 9.95355 17 10.5124 17H21.4876C22.0465 17 22.5 16.552 22.5 16C22.5 15.448 22.0465 15 21.4876 15Z" fill="black"/>
<path d="M21.4876 10.5H10.5124C9.95355 10.5 9.5 10.948 9.5 11.5C9.5 12.052 9.95355 12.5 10.5124 12.5H21.4876C22.0465 12.5 22.5 12.052 22.5 11.5C22.5 10.948 22.0465 10.5 21.4876 10.5Z" fill="black"/>
<path d="M21.4876 6.5H10.5124C9.95355 6.5 9.5 6.948 9.5 7.5C9.5 8.052 9.95355 8.5 10.5124 8.5H21.4876C22.0465 8.5 22.5 8.052 22.5 7.5C22.5 6.948 22.0465 6.5 21.4876 6.5Z" fill="black"/>
</svg>
